<svg  viewBox="0 0 77 74" fill="none" xmlns="http://www.w3.org/2000/svg">
<g filter="url(#filter0_d_13_288)">
<rect x="8.67358" y="5.95833" width="58.155" height="55.9479" fill="#100708"/>
<g clip-path="url(#clip0_13_288)">
<path d="M66.4915 3.18997C66.7077 3.19399 66.8722 3.24167 66.9851 3.33302C67.2239 3.52625 67.5745 3.84371 68.0369 4.2854C68.3358 4.57074 68.451 4.9148 68.9447 4.9916C68.9763 4.99645 69.0047 5.01148 69.0243 5.03376C69.1293 5.15422 69.2902 5.27693 69.3503 5.41697C69.3712 5.46515 69.411 5.50731 69.4697 5.54345C69.5098 5.56805 69.5349 5.60142 69.5451 5.64358C69.6128 5.92666 69.8601 5.9485 70.0083 6.16683C70.2838 6.57288 70.5056 6.99851 70.6739 7.44371C70.701 7.51523 70.6663 7.59729 70.723 7.65903C70.8517 7.79806 70.9285 7.94487 70.9533 8.09946C70.9923 8.34414 71.1405 8.55193 71.1362 8.79511C71.1334 8.96978 71.1588 9.13667 71.2125 9.29577C71.2556 9.42527 71.171 9.53519 71.1726 9.66769C71.1921 11.1847 71.2218 12.6348 71.1989 14.1209C71.1831 15.183 71.178 16.2561 71.1837 17.3402C71.1845 17.5066 71.1354 17.7393 71.1388 17.9433C71.1456 18.3538 71.1402 18.7052 71.1227 18.9973C70.9968 21.0722 70.9355 22.6043 70.9389 23.5936C70.9474 26.1453 70.9449 28.5279 70.9313 30.7414C70.9254 31.7088 70.8627 32.6544 70.9042 33.7024C70.9635 35.2037 70.9847 36.3653 70.8907 37.6927C70.8743 37.9306 70.8788 38.1647 70.9042 38.3951C70.9341 38.6646 70.9451 38.899 70.9372 39.0983C70.8847 40.4278 70.8128 41.8395 70.7213 43.3332C70.6891 43.8617 70.699 44.6773 70.7509 45.78C70.7789 46.3673 70.7789 46.9462 70.7882 47.5357C70.7916 47.7726 70.7896 48.0075 70.7823 48.2404C70.756 49.0324 70.8102 49.8312 70.7865 50.6165C70.7752 50.9994 70.7758 51.3874 70.7882 51.7804C70.7938 51.9641 70.7859 52.1544 70.7645 52.3511C70.7442 52.5363 70.7269 52.7265 70.7128 52.9218C70.6699 53.515 70.6098 54.1116 70.5325 54.7114C70.4929 55.0215 70.4266 55.3227 70.3335 55.6148C70.2042 56.0224 70.0848 56.4021 69.9753 56.7539C69.8169 57.2636 69.5307 57.8027 69.2063 58.2529C69.0494 58.4697 68.8984 58.6913 68.7533 58.9177C68.6898 59.017 68.5763 59.0329 68.5264 59.1172C68.3547 59.4033 68.1549 59.6678 67.9268 59.9107C67.5113 60.3544 67.0907 60.7572 66.6651 61.1191C66.5059 61.2546 66.3057 61.3793 66.0647 61.4932C65.8563 61.5911 65.6658 61.6978 65.4931 61.8132C65.1543 62.0401 64.7439 62.2275 64.2618 62.3756C64.0947 62.4268 63.9394 62.4858 63.796 62.5525C63.5776 62.6542 63.3498 62.676 63.1279 62.7686C62.7655 62.9192 62.4073 62.9659 62.0143 62.9952C61.841 63.0083 61.6635 63.0457 61.4817 63.1074C61.1622 63.2168 60.8587 63.2735 60.5714 63.2776C59.794 63.2873 58.9954 63.3122 58.1901 63.2843C57.251 63.2527 56.3263 63.2685 55.4041 63.2234C54.367 63.1722 53.4708 63.1626 52.7155 63.1947C52.0047 63.2254 51.3033 63.2562 50.6111 63.2873C50.1064 63.3107 49.617 63.3897 49.114 63.401C47.234 63.4432 45.6776 63.3973 43.9772 63.3965C43.414 63.3965 42.8306 63.325 42.2522 63.3438C40.4256 63.4048 38.7752 63.4605 37.0248 63.4251C35.62 63.3965 34.2473 63.4086 32.8932 63.4146C32.6708 63.4156 32.4489 63.4211 32.2276 63.4311C31.9329 63.4439 31.6484 63.4214 31.3486 63.4342C30.4154 63.4748 29.4983 63.3837 28.5448 63.4191C27.0798 63.4743 25.6795 63.4773 24.3438 63.4281C23.9463 63.4136 23.5636 63.4201 23.1955 63.4477C22.8099 63.4763 22.43 63.4904 22.0557 63.4899C20.8354 63.4884 19.6118 63.4703 18.3788 63.5373C17.8944 63.5634 17.3892 63.5842 16.863 63.5998C16.2849 63.6164 15.8104 63.5877 15.4395 63.514C15.1166 63.4497 14.7832 63.3762 14.4394 63.2934C14.2486 63.2477 14.0598 63.1671 13.8729 63.0517C13.6231 62.8981 13.3284 62.8454 13.0879 62.679C12.9346 62.5744 12.7458 62.5653 12.5841 62.478C11.8727 62.0971 11.1241 61.7151 10.3383 61.3321C9.73876 61.04 9.2078 60.72 8.68109 60.3391C8.40587 60.1403 8.20263 59.8881 7.91472 59.7059C7.67535 59.5553 7.44276 59.3717 7.21694 59.1548C7.08484 59.0283 7.07806 58.8763 6.92056 58.7588C6.72692 58.6143 6.60498 58.5114 6.55473 58.4501C6.27359 58.1093 5.99301 57.772 5.713 57.4383C5.63679 57.3472 5.5919 57.244 5.53347 57.1447C5.52388 57.1281 5.509 57.1145 5.49071 57.1055C5.47243 57.0965 5.45156 57.0925 5.43073 57.0941C5.4099 57.0956 5.39004 57.1026 5.37367 57.1141C5.35729 57.1257 5.34513 57.1413 5.33871 57.159C5.31669 57.2197 5.28338 57.2458 5.23878 57.2373C4.9328 56.1411 4.7784 55.0763 4.77557 54.0428C4.76203 48.8033 4.76569 39.9372 4.78658 27.4445L4.85941 27.4581C4.88877 27.4636 4.90598 27.4794 4.91106 27.5055C5.01946 28.1058 5.03865 28.7312 4.96865 29.3817C4.9551 29.5104 5.0618 29.6219 5.06434 29.7596C5.07337 30.2927 5.09736 30.7625 5.13632 31.169C5.15608 31.3723 5.20886 31.5733 5.29467 31.7721C5.33984 31.8765 5.38472 31.8765 5.42932 31.7721C5.69522 31.1547 5.7384 30.3853 5.70538 29.7393C5.68251 29.2718 5.69352 28.7922 5.8197 28.342C5.91962 27.9821 6.04834 27.6297 6.09999 27.2631C6.23831 26.2788 6.345 25.2923 6.42009 24.3036C6.43025 24.1645 6.43731 24.0235 6.44126 23.8804C6.44352 23.7916 6.42122 23.6513 6.37436 23.4596C6.34105 23.3246 6.33061 23.1795 6.34303 23.0244C6.45311 21.6015 6.51183 20.1771 6.51917 18.7511C6.52199 18.1649 6.5409 17.6612 6.5759 17.2401C6.64308 16.428 6.72494 15.6533 6.82148 14.916C6.8593 14.6259 6.93552 14.325 7.05012 14.0133C7.08738 13.9124 7.17968 13.8597 7.20509 13.7596C7.36203 13.1287 7.52405 12.5108 7.69116 11.906C7.74705 11.7012 7.73604 11.4535 7.84613 11.2691C7.98754 11.0342 8.01888 10.7895 8.1044 10.535C8.25683 10.0763 8.41039 9.65264 8.56507 9.26415C8.79145 8.69498 9.15502 8.10598 9.65577 7.49716C10.038 7.03289 10.3787 6.6833 10.6779 6.44841C10.906 6.26872 11.1707 6.07824 11.4722 5.87698C11.589 5.79943 11.7228 5.83406 11.8389 5.74447C12.011 5.61146 12.1906 5.50782 12.3774 5.43353C12.8762 5.23477 13.3157 4.91104 13.7925 4.73336C14.1334 4.60688 14.5546 4.47186 15.0559 4.32831C15.262 4.26909 15.4553 4.23872 15.636 4.23722C16.1466 4.23195 16.6217 4.1672 17.0984 4.03244C17.4592 3.93004 17.8225 4.01587 18.1934 3.94962C18.5174 3.89089 18.8468 3.87534 19.1816 3.90294C19.3131 3.91348 19.4489 3.90018 19.5889 3.86304C19.9175 3.77571 20.2071 3.89918 20.539 3.90821C20.6666 3.91172 20.7866 3.89918 20.8989 3.87057C21.0217 3.83895 21.1504 3.78549 21.2783 3.83292C21.5205 3.92176 21.7779 3.92979 22.0506 3.85702C22.2476 3.80431 22.4619 3.79729 22.6933 3.83594C22.8164 3.85702 22.9446 3.86003 23.0778 3.84497C23.3347 3.81536 23.6017 3.81837 23.8789 3.854C24.0296 3.87308 24.1846 3.87107 24.3438 3.84798C24.884 3.76893 25.3557 3.94134 25.8841 3.70192C25.8981 3.69575 25.9132 3.6921 25.9286 3.6912C25.944 3.69029 25.9594 3.69215 25.9739 3.69665C26.2353 3.77696 26.5658 3.79503 26.9655 3.75086C27.398 3.70268 27.9825 3.71096 28.7193 3.77571C28.8418 3.78675 28.9595 3.78825 29.0724 3.78022C29.2307 3.76893 29.3832 3.74333 29.5407 3.7742C29.7044 3.80632 29.8707 3.82414 30.0395 3.82765C30.4137 3.83518 30.7381 3.98726 31.1115 3.96317C31.5711 3.93356 32.06 3.90244 32.5782 3.86981C32.7826 3.85727 32.9898 3.86404 33.1998 3.89014C33.5766 3.93682 33.9145 3.84422 34.2879 3.85551C34.6817 3.86756 35.0763 3.8525 35.4667 3.86756C35.8181 3.88111 36.1475 3.83217 36.5015 3.86454C36.7505 3.88763 36.9221 3.89265 37.0164 3.8796C37.4189 3.82238 37.8197 3.78374 38.2188 3.76366C38.5178 3.74785 38.8057 3.67633 39.1122 3.67181C39.4397 3.66729 39.7679 3.657 40.0971 3.64094C40.5171 3.61986 40.9337 3.68461 41.347 3.60781C41.5443 3.57092 41.7391 3.6289 41.9381 3.61911C42.2378 3.60455 42.5336 3.59778 42.8255 3.59878C43.0372 3.59928 43.221 3.58146 43.3768 3.54533C43.619 3.48961 43.8646 3.44068 44.1152 3.44519C46.2695 3.48058 48.3086 3.3955 50.6035 3.29236C51.0134 3.27429 51.417 3.24543 51.8145 3.20578C52.4281 3.14555 52.8352 3.12071 53.0356 3.13125C54.0269 3.18144 55.0154 3.19825 56.0011 3.18169C56.5058 3.17316 56.9546 3.10715 57.3475 2.98368C57.5059 2.93399 57.688 2.90689 57.8556 2.91141C58.5432 2.92722 59.2165 2.90764 59.9126 2.9626C60.3213 2.99472 60.7289 3.01304 61.1354 3.01756C61.3352 3.01982 61.5291 3.08005 61.7256 3.11393C61.7566 3.11895 61.7874 3.11694 61.8179 3.10791C62.1109 3.02057 62.287 3.24192 62.5656 3.26375C62.6684 3.27178 62.7677 3.29964 62.8637 3.34732C63.1454 3.48786 63.446 3.58724 63.7656 3.64546C63.8706 3.66453 64.0238 3.66604 64.2254 3.64998C64.3806 3.63743 64.5415 3.64094 64.7081 3.66052C65.1303 3.7097 65.5238 3.72602 65.8885 3.70945C66.1285 3.69791 66.3701 3.75287 66.6134 3.87433C66.8031 3.96844 67.0072 3.9579 67.1985 3.88562C67.2112 3.88087 67.2226 3.87369 67.2318 3.86461C67.241 3.85552 67.2478 3.84476 67.2518 3.8331C67.2558 3.82144 67.2568 3.80916 67.2547 3.79715C67.2527 3.78514 67.2477 3.77371 67.24 3.76366C67.0927 3.56716 66.8336 3.4083 66.4915 3.18997ZM11.2478 10.1081C10.8676 10.9009 10.5593 11.7675 10.4509 12.6205C10.43 12.7836 10.4092 12.9374 10.3883 13.082C10.2415 13.2993 10.1526 13.4825 10.1215 13.6316C10.0978 13.7465 10.0699 13.8446 10.0377 13.9259C9.97954 14.072 9.94594 14.1676 9.93691 14.2128C9.89231 14.4206 9.86437 14.587 9.85308 14.7119C9.78279 15.4791 9.68202 16.2583 9.65492 17.0142C9.60581 18.3664 9.68033 19.7238 9.66254 21.1031C9.65069 22.0013 9.70234 22.8686 9.69134 23.7532C9.68117 24.4993 9.71335 25.2017 9.67186 25.9847C9.62613 26.843 9.60468 27.7889 9.6075 28.8223C9.60919 29.2529 9.56177 29.6964 9.57702 30.127C9.61004 31.09 9.49657 32.1041 9.40765 33.0391C9.36588 33.4848 9.36305 33.9205 9.39918 34.3461C9.45761 35.035 9.38733 35.7006 9.38648 36.3781C9.38592 36.4825 9.37293 36.5904 9.34753 36.7019C9.28656 36.9639 9.24676 37.2259 9.23998 37.4947C9.20442 38.9703 9.20611 40.4135 9.16377 41.8824C9.12538 43.2255 9.17393 44.4703 9.30942 45.6167C9.3162 45.6791 9.3416 45.7477 9.33821 45.8086C9.31281 46.2428 9.29277 46.6747 9.27809 47.1043C9.26285 47.547 9.19002 47.9792 9.21966 48.4181C9.22559 48.5062 9.18409 48.5958 9.18748 48.6854C9.21627 49.5366 9.21063 50.3874 9.17054 51.2376C9.157 51.5086 9.1951 51.7872 9.19595 52.065C9.19877 52.7085 9.20555 53.3467 9.21627 53.9796C9.22418 54.4996 9.31309 55.1003 9.48302 55.7819C9.5152 55.9099 9.61851 55.9604 9.63375 56.0816C9.64335 56.1604 9.67214 56.2359 9.72013 56.3082C9.87594 56.5431 10.0315 56.7637 10.1867 56.97C10.3815 57.2282 10.6779 57.3404 10.8413 57.6182C10.9091 57.7336 11.0011 57.8441 11.1174 57.9495C11.3601 58.1698 11.5428 58.3226 11.6653 58.408C11.7804 58.4878 11.8871 58.4557 11.9854 58.3116C13.3233 59.8284 15.0785 60.6149 17.2509 60.6711C18.3308 60.6992 19.2841 60.7133 20.1105 60.7133C25.1773 60.7133 30.2441 60.7103 35.3109 60.7042C42.8035 60.6952 50.8626 60.6922 59.4883 60.6952C60.2324 60.6952 60.8 60.6709 61.1912 60.6222C62.663 60.4385 64.161 59.8286 65.1188 58.868C66.1208 57.8621 66.7785 56.6558 67.0918 55.2489C67.2553 54.5164 67.2621 53.6498 67.2638 52.8759C67.2917 40.1945 67.2553 26.974 67.2654 14.0464C67.266 13.3151 67.2273 12.6998 67.1494 12.2004C66.9439 10.8828 66.3438 9.70032 65.3491 8.65282C65.4377 8.63726 65.4919 8.6611 65.5117 8.72434C65.519 8.74894 65.534 8.76876 65.5566 8.78382L65.6997 8.87868C65.7234 8.89424 65.7341 8.91507 65.7319 8.94117C65.729 8.98634 65.7528 9.01872 65.803 9.03829C65.8136 9.04248 65.8253 9.044 65.8369 9.04268C65.8484 9.04136 65.8593 9.03725 65.8684 9.03081C65.8774 9.02436 65.8844 9.01583 65.8884 9.00613C65.8924 8.99643 65.8933 8.98594 65.8911 8.9758C65.8513 8.78608 65.7776 8.52634 65.5862 8.42395C65.3593 8.30273 65.2958 8.01137 65.1289 7.82842C64.8969 7.57295 64.6762 7.33404 64.4667 7.11169C64.3634 7.00177 64.2821 6.92999 64.2228 6.89637C63.9863 6.76235 63.7472 6.59748 63.5056 6.40173C63.3735 6.29482 63.1663 6.17838 62.884 6.05239C62.6791 5.96054 62.4598 5.88952 62.2261 5.83933C61.7676 5.74096 61.3679 5.66843 61.027 5.62175C60.2705 5.51785 59.5318 5.48874 58.8108 5.53442C57.6397 5.60971 56.5685 5.64133 55.3508 5.57733C54.509 5.53316 53.6859 5.52915 52.8814 5.56529C50.9863 5.65011 49.2356 5.69528 47.6295 5.7008C45.6869 5.70683 43.8914 5.71486 42.2429 5.7249C42.11 5.72565 41.9821 5.68951 41.8491 5.69102C40.5874 5.70457 39.3663 5.65789 38.1452 5.65563C36.9709 5.65312 35.7428 5.65212 34.4607 5.65262C33.4174 5.65337 32.3631 5.70532 31.3427 5.72791C31.0336 5.73544 30.7254 5.7392 30.4087 5.70607C29.3146 5.59364 28.2349 5.55951 27.1696 5.60368C26.7936 5.61874 26.421 5.56905 26.0433 5.58787C25.2516 5.62777 24.4412 5.60218 23.6341 5.64961C22.8489 5.69478 22.1994 5.71009 21.6856 5.69553C21.5761 5.69252 21.4748 5.69403 21.3816 5.70005C21.0649 5.72113 20.744 5.67822 20.4391 5.69854C20.0089 5.72715 19.5787 5.78738 19.1409 5.78663C18.3184 5.78512 17.5173 5.78437 16.7377 5.78437C16.6027 5.78438 16.4691 5.80553 16.3431 5.84686C16.0662 5.93796 15.7893 6.02153 15.4912 6.06369C14.7282 6.17135 14.1735 6.37312 13.5689 6.79925C12.9631 7.22638 12.472 7.70043 12.0954 8.22142C12.0463 8.28918 12.0232 8.36472 12.026 8.44804C12.0336 8.67766 11.7406 8.94117 11.5476 9.04958C11.4569 9.10003 11.4078 9.17757 11.3731 9.26566C11.2675 9.53268 11.1518 9.79618 11.0259 10.0562C10.9864 10.1375 11.0079 10.153 11.0903 10.1029C11.1326 10.0773 11.1851 10.079 11.2478 10.1081Z" fill="#FF800F"/>
<path d="M34.8723 13.8469C34.7757 13.8594 34.6848 13.8504 34.5996 13.8198C34.5702 13.8093 34.5533 13.8178 34.5488 13.8454C34.5454 13.866 34.5564 13.8855 34.5818 13.9041C34.671 13.9714 34.7102 14.0705 34.6995 14.2015C34.4336 13.9847 34.2281 13.8466 34.083 13.7874C33.5337 13.5651 32.9779 13.4411 32.4157 13.4155C32.1966 13.4055 31.8257 13.4223 31.3029 13.4659C31.2058 13.474 31.1155 13.4938 31.032 13.5254C30.844 13.5962 30.6729 13.6587 30.4697 13.7084C29.9876 13.8248 29.4995 13.9588 29.0055 14.1104C28.7557 14.1872 28.5372 14.3423 28.2925 14.4417C27.8104 14.6389 27.2964 14.8683 26.7505 15.1298C26.5969 15.2036 26.4569 15.2814 26.3304 15.3632C25.8991 15.6427 25.4368 15.9381 24.9434 16.2493C24.2786 16.6679 23.7146 17.213 23.1329 17.7355C22.8371 18.002 22.5791 18.2658 22.3589 18.5268C21.1152 20.0029 20.2215 21.5832 19.6779 23.2676C19.3849 24.1763 19.2782 25.143 19.2672 26.0773C19.2508 27.5233 19.2497 29.0878 19.2638 30.7707C19.2646 30.8694 19.2926 30.9815 19.4035 31.0245C19.4252 31.0326 19.4489 31.036 19.4724 31.0343C19.4959 31.0325 19.5186 31.0258 19.5385 31.0145C19.5584 31.0032 19.5749 30.9878 19.5867 30.9696C19.5984 30.9514 19.605 30.931 19.6059 30.91C19.6127 30.7414 19.6431 30.581 19.6973 30.4289C19.7371 30.3175 19.6677 30.2294 19.7143 30.109C19.8904 29.6567 20.0344 29.1915 20.1462 28.7131C20.1792 28.5716 20.1699 28.4421 20.1868 28.3021C20.315 27.2475 20.4815 26.1471 20.6864 25.0007C20.7615 24.5831 20.8691 24.1442 21.0091 23.6839C21.087 23.4265 21.0582 23.1825 21.1818 22.9288C21.3726 22.5353 21.5795 22.1872 21.8025 21.8846C21.9741 21.6507 22.1398 21.4093 22.2996 21.1603C22.4656 20.9008 22.6347 20.6724 22.8068 20.4752C22.9788 20.2787 23.2176 20.1447 23.3945 19.9444C23.6271 19.6814 23.8916 19.4327 24.188 19.1983C24.236 19.1607 24.2662 19.1145 24.2786 19.0598C24.2837 19.0357 24.2975 19.0166 24.3201 19.0026C24.7864 18.7054 25.2668 18.3784 25.7614 18.0216C25.8715 17.9423 25.9886 17.8697 26.1128 17.804C26.4792 17.6098 26.8414 17.414 27.1993 17.2168C28.1155 16.7116 29.1072 16.3826 30.1301 16.0536C30.33 15.9898 30.5115 15.9507 30.6746 15.9361C30.9924 15.908 31.3309 15.8792 31.6899 15.8495C32.0024 15.8232 32.3107 15.8443 32.6214 15.8029C32.6536 15.7983 32.6725 15.782 32.6782 15.7539C32.6889 15.7017 32.7143 15.6558 32.7544 15.6161C32.7826 15.588 32.8049 15.5913 32.8213 15.6259L32.8408 15.6673C32.856 15.7 32.8837 15.714 32.9237 15.7095C33.1117 15.6874 33.2405 15.6021 33.3099 15.4535C33.4606 15.1283 33.9619 14.7104 34.4235 14.7963C34.5776 14.8244 34.7297 14.8259 34.8799 14.8008C34.8968 14.7979 34.9121 14.7897 34.9228 14.7777C34.9335 14.7657 34.939 14.7506 34.9383 14.7353C34.9349 14.656 34.9482 14.5772 34.9781 14.4989C35.1226 14.7067 35.1991 14.9378 35.2076 15.1923C35.2087 15.2199 35.2169 15.246 35.2322 15.2706C35.3118 15.3956 35.3727 15.5371 35.2999 15.6771C35.2062 15.8568 35.1396 16.0403 35.1001 16.2275C35.0264 16.5708 34.785 16.8878 34.4353 17.0428C33.7093 17.3661 32.9294 17.5834 32.0956 17.6948C31.3969 17.7882 30.6077 17.752 29.9387 18.0186C29.5125 18.1877 29.0747 18.3358 28.6253 18.4628C28.5474 18.4848 28.4788 18.52 28.4195 18.5682C28.0224 18.8874 27.599 19.1803 27.2086 19.5115C27.0138 19.6771 26.7962 19.8405 26.5557 20.0016C26.2593 20.1999 25.9779 20.4524 25.7114 20.759C25.3126 21.2183 24.9696 21.5879 24.7952 22.0728C24.6252 22.5426 24.4248 23.0335 24.1939 23.5454C23.8919 24.216 23.6833 24.9631 23.5681 25.7867C23.3497 27.3497 23.2836 29.2304 23.2311 30.9484C23.2006 31.9422 23.0533 32.9255 22.9974 33.9554C22.9878 34.1376 22.9494 34.3203 22.8822 34.5035C22.8754 34.5231 22.8605 34.5331 22.8373 34.5336C22.0662 34.5637 21.286 34.5462 20.4967 34.4809C20.2876 34.4636 20.0894 34.4704 19.8794 34.4884C19.4738 34.5238 19.1969 34.3326 19.2147 33.9614C19.2367 33.5122 19.231 33.0233 19.1977 32.4948C19.196 32.4687 19.1825 32.4497 19.1571 32.4376L18.9894 32.357C18.9324 29.5749 18.931 27.4553 18.9852 25.9983C19.0981 22.9823 20.228 20.3291 22.375 18.0389C23.2396 17.1166 24.326 16.2779 25.4548 15.5484C26.6246 14.793 27.9174 14.1884 29.3333 13.7347C31.1082 13.1655 33.2227 12.6604 34.8723 13.8469Z" fill="#FF800F"/>
<path d="M57.6066 20.2192L57.5321 20.2102C57.4958 20.206 57.4589 20.2119 57.4264 20.2271C57.394 20.2423 57.3677 20.266 57.351 20.295C57.3343 20.324 57.3281 20.3569 57.3332 20.3891C57.3384 20.4214 57.3546 20.4515 57.3797 20.4752C57.5499 20.6371 57.6202 20.8705 57.7116 21.0105C57.8141 21.1671 57.9242 21.2921 57.9614 21.475C58.0275 21.8058 58.1918 22.0851 58.4543 22.313C58.5881 22.4297 58.7668 22.6969 58.782 22.8641C58.7984 23.0332 58.8207 23.2044 58.8489 23.3775C58.8552 23.4147 58.8735 23.4495 58.9016 23.4775C58.9297 23.5056 58.9664 23.5258 59.0072 23.5356C59.1286 23.5647 59.202 23.6338 59.2274 23.7427C59.2706 23.9279 59.3485 24.0935 59.4679 24.2531C59.5255 24.3304 59.5653 24.4147 59.5873 24.5061C59.7019 24.9944 59.8165 25.4946 59.9311 26.0066C59.9692 26.1775 60.1132 26.2942 60.1352 26.45C60.1595 26.6227 60.1979 26.7805 60.2504 26.9236C60.3136 27.0957 60.3627 27.2591 60.3977 27.4137C60.5679 28.1628 60.6679 28.936 60.7 29.7303C60.7119 30.0144 60.7554 30.3065 60.8304 30.6066C60.9803 31.2052 61.0464 31.7901 61.0472 32.4007C61.0495 33.3825 61.0331 34.302 60.9981 35.1592C60.96 36.0943 60.6789 37.0023 60.5705 37.9321C60.5612 38.0074 60.5942 38.0729 60.5747 38.1421C60.4866 38.4621 60.4909 38.77 60.3613 39.09C60.0644 39.8218 59.8323 40.5215 59.6652 41.189C59.6449 41.2681 59.6712 41.3268 59.6356 41.4021C59.2455 42.2137 58.8489 43.0511 58.4458 43.9144C58.4097 43.9912 58.3374 44.1137 58.229 44.2818C58.141 44.4188 58.0732 44.5511 58.0258 44.6786C57.953 44.8768 57.8609 45.043 57.7497 45.177C57.3963 45.6021 57.074 46.038 56.7827 46.4847C56.6715 46.6549 56.5509 46.8132 56.4211 46.9598C56.2816 47.1174 56.1481 47.274 56.0205 47.4296C55.6623 47.867 55.2237 48.2879 54.7681 48.6507C54.2154 49.0914 53.5597 49.5981 52.8009 50.1708C52.0128 50.7661 51.2699 51.2211 50.5721 51.5358C49.3725 52.0768 48.1172 52.3885 46.8063 52.4708C46.0459 52.5183 45.3058 52.4625 44.547 52.5017C44.3751 52.51 44.2032 52.4189 44.0195 52.4136C43.7643 52.4061 43.5444 52.3564 43.3598 52.2645C42.8424 52.0078 42.3157 51.794 41.7204 51.6803C41.4302 51.6251 41.1513 51.5322 40.8837 51.4017C40.5602 51.2429 40.2105 51.1789 39.8438 51.1322C39.6344 51.1056 39.4368 51.0391 39.2511 50.9327C38.6504 50.5879 38.1598 50.223 37.7793 49.838C37.5004 49.5554 37.3006 49.2136 37.1797 48.8126C37.1414 48.6856 37.0948 48.5614 37.04 48.4399C36.97 48.2859 36.9548 48.1255 36.9943 47.9589C37.0383 47.7721 37.079 47.5847 37.1162 47.3965C37.1631 47.1606 37.2246 46.9756 37.3008 46.8416C37.4219 46.6285 37.6006 46.3048 37.8089 46.1331C37.9859 45.9871 38.0875 45.8034 38.2925 45.6867C38.6978 45.4558 39.1472 45.3077 39.6406 45.2425C39.8718 45.2116 40.086 45.2944 40.313 45.311C40.5763 45.3306 40.8066 45.4367 41.0158 45.5775C41.3257 45.7868 41.7957 46.1 41.9075 46.4456C42.076 46.9643 41.8118 47.4424 42.0244 47.9634C42.1556 48.2856 42.2462 48.6364 42.5799 48.851C43.0434 49.1486 43.4854 49.3539 43.906 49.4669C44.5276 49.6332 45.2982 49.6799 45.9511 49.7108C46.2649 49.7253 46.6271 49.6822 47.0375 49.5813C47.3297 49.5098 47.6227 49.515 47.9131 49.436C48.3913 49.3055 48.8178 49.1384 49.1927 48.9346C49.2994 48.8766 49.4069 48.9037 49.5077 48.8277C49.8763 48.5506 50.2755 48.3222 50.7051 48.1426C50.8702 48.074 50.9769 47.9084 51.1412 47.8135C51.6306 47.532 52.0439 47.1171 52.4749 46.8002C52.834 46.5357 53.1893 46.1776 53.5411 45.7258C53.6557 45.5793 53.8061 45.4277 53.9924 45.2711C54.1409 45.1451 54.2577 45.0166 54.343 44.8856C54.4937 44.653 54.6749 44.4527 54.7918 44.2043C54.9058 43.9613 55.0521 43.7029 55.2305 43.4288C55.4636 43.0699 55.6598 42.6734 55.819 42.2393C55.8698 42.1007 55.8286 42.0046 55.6954 41.9509C56.1044 41.0302 56.4837 40.1373 56.6963 39.1563C57.3297 36.2341 57.3249 33.3426 56.6819 30.4816C56.239 28.5099 55.3803 26.6819 54.133 24.8938C53.0008 23.2706 51.4367 21.8673 49.6897 20.738C48.7645 20.1402 47.7234 19.6355 46.5667 19.2239C46.1478 19.0754 45.7605 18.9968 45.4049 18.9883C44.9888 18.9787 44.588 18.9604 44.2024 18.9333C42.4071 18.8068 40.9887 17.5081 41.1124 15.8879C41.157 15.3017 41.354 14.8043 41.7034 14.3957C42.7289 13.1987 44.1423 12.9683 45.7453 13.2965C47.5021 13.6564 49.1783 14.2253 50.7737 15.0033C53.4637 16.3148 55.7414 18.0535 57.6066 20.2192Z" fill="#FF800F"/>
<path d="M43.7078 27.6478C43.9218 27.82 44.0228 27.9854 44.011 28.144C43.9974 28.3292 43.8938 28.6358 43.7002 29.064C43.6578 29.1581 43.6816 29.2635 43.6265 29.3478C43.4278 29.652 43.2737 29.9622 43.1642 30.2784C43.121 30.4041 42.9956 30.4124 42.9254 30.5148C42.4969 31.1442 42.0723 31.7123 41.6517 32.2193C41.5095 32.3909 41.3734 32.5922 41.2436 32.8231C41.0449 33.1764 40.8337 33.4999 40.6102 33.7935C40.3939 34.0771 40.1306 34.3635 39.8201 34.6526C39.3899 35.0531 38.9662 35.4318 38.549 35.7887C37.9986 36.2592 37.3491 36.4542 36.6767 36.7456C36.3735 36.8773 36.0619 36.8924 35.7571 36.9963C35.2111 37.1835 34.6051 37.2999 33.9389 37.3456C33.5867 37.3692 33.2544 37.4259 32.9422 37.5157C32.7379 37.5745 32.5372 37.6056 32.3402 37.6091C31.7434 37.6211 31.1682 37.6156 30.6144 37.5925C30.2536 37.5782 29.809 37.6227 29.3983 37.6068C28.0446 37.5526 26.6916 37.5654 25.3395 37.6452C25.0178 37.6638 24.5433 37.648 23.916 37.5978C23.6764 37.5782 23.4816 37.6806 23.2538 37.6558C22.7737 37.6031 22.3469 37.637 21.8854 37.6716C21.7013 37.6851 21.515 37.6897 21.3265 37.6851C20.5785 37.6666 19.8206 37.6774 19.0528 37.7175C18.871 37.727 18.6909 37.7107 18.5125 37.6686C18.1077 37.5722 17.6606 37.5888 17.2448 37.5722C16.8638 37.5566 16.4838 37.512 16.105 37.4382C15.93 37.4046 15.7677 37.3468 15.6181 37.265C15.4123 37.1529 15.1752 37.128 15.027 36.9398C14.8656 36.735 14.8469 36.5345 14.9711 36.3382L15.1176 36.5009C15.1351 36.5209 15.1599 36.5349 15.1879 36.5408C15.5769 36.6271 15.9221 36.6936 16.2236 36.7403C16.9993 36.8592 17.8418 36.6537 18.5794 36.4226C18.9311 36.3126 19.328 36.2517 19.77 36.2396C20.2959 36.2253 20.7828 36.2095 21.3104 36.1508C21.7564 36.1011 22.2278 36.1006 22.7246 36.1493C23.2598 36.202 23.9829 36.0296 24.6291 36.1018C25.4386 36.1927 26.0876 36.212 26.5759 36.1598C26.7724 36.1387 26.9852 36.1244 27.2144 36.1169C27.7648 36.0996 28.2788 36.0107 28.8293 36.013C29.452 36.0165 30.0744 36.0539 30.6965 36.1252C30.8896 36.147 31.0979 36.153 31.2927 36.1387C31.816 36.1021 32.328 36.0582 32.8288 36.007C33.0049 35.9889 33.1969 35.9588 33.4046 35.9166C33.587 35.8795 33.7874 35.8594 34.0058 35.8564C34.757 35.8466 35.5115 35.6569 36.216 35.3023C36.5661 35.1261 36.9158 34.954 37.2652 34.7858C37.5452 34.6513 37.7883 34.5005 37.9943 34.3333C38.3017 34.0819 38.6024 33.8854 38.8412 33.5699C39.3179 32.9375 39.7464 32.29 39.9861 31.6125C40.0346 31.4749 40.0961 31.3394 40.1707 31.2059C40.4213 30.7587 40.6607 30.3065 40.8888 29.8492C40.9396 29.7476 41.0666 29.5985 41.1716 29.5082C41.523 29.2033 41.8499 28.86 42.2504 28.6228C42.5824 28.4265 42.94 28.2439 43.3234 28.0747C43.367 28.0558 43.4016 28.0232 43.4207 27.9829C43.4461 27.9286 43.4924 27.9005 43.5596 27.8985C43.602 27.8975 43.6293 27.879 43.6418 27.8428L43.7078 27.6478Z" fill="#FF800F"/>
<path d="M18.9741 46.3477L18.9953 41.4329C19.0704 41.4641 19.1359 41.4613 19.1918 41.4247C19.3696 41.3087 19.5296 41.2229 19.7574 41.2282C20.0318 41.2342 20.3146 41.1597 20.589 41.1845C20.7815 41.2026 20.974 41.2141 21.1665 41.2191C21.5942 41.2297 21.9896 41.18 22.441 41.2605C22.721 41.3102 22.8943 41.4467 22.9609 41.6701C23.0546 41.9868 23.1128 42.307 23.1354 42.6308C23.1834 43.3279 23.1743 43.9398 23.1083 44.4663C23.0332 45.0661 22.9383 45.697 22.8237 46.359C22.7035 47.0539 22.159 47.535 21.33 47.4461C21.0844 47.4198 20.8507 47.3626 20.6009 47.3566C20.1554 47.3465 19.7529 47.2115 19.3933 46.9515C19.373 46.9375 19.3589 46.9194 19.351 46.8973C19.2668 46.6674 19.1412 46.4842 18.9741 46.3477Z" fill="#FF800F"/>
<path d="M65.593 2.36482C68.5484 3.75839 71.0007 6.14274 72.0838 8.98333V58.2981C71.2647 60.1948 70.056 61.8049 68.4578 63.1285C66.8206 64.4837 64.8664 65.3575 62.5953 65.75H14.8146C12.297 65.226 10.0428 63.9476 8.30085 62.2642C6.81441 60.8287 5.79372 59.1531 5.23877 57.2373C5.28337 57.2458 5.31668 57.2197 5.33869 57.159C5.34511 57.1413 5.35728 57.1257 5.37365 57.1141C5.39003 57.1026 5.40988 57.0956 5.43071 57.0941C5.45154 57.0925 5.47242 57.0965 5.4907 57.1055C5.50899 57.1145 5.52386 57.1281 5.53346 57.1447C5.59189 57.244 5.63677 57.3472 5.71299 57.4383C5.993 57.772 6.27358 58.1093 6.55472 58.4501C6.60496 58.5114 6.72691 58.6143 6.92054 58.7588C7.07805 58.8763 7.08483 59.0283 7.21693 59.1548C7.44275 59.3717 7.67534 59.5554 7.91471 59.7059C8.20262 59.8881 8.40586 60.1403 8.68107 60.3391C9.20779 60.7201 9.73875 61.04 10.3383 61.3321C11.1241 61.7151 11.8727 62.0971 12.584 62.478C12.7458 62.5653 12.9346 62.5744 13.0879 62.679C13.3284 62.8454 13.6231 62.8981 13.8729 63.0517C14.0598 63.1671 14.2486 63.2477 14.4394 63.2934C14.7832 63.3762 15.1166 63.4497 15.4395 63.514C15.8104 63.5877 16.2849 63.6164 16.863 63.5998C17.3892 63.5842 17.8944 63.5634 18.3788 63.5373C19.6118 63.4703 20.8354 63.4884 22.0557 63.4899C22.43 63.4904 22.8099 63.4763 23.1955 63.4477C23.5636 63.4201 23.9463 63.4136 24.3438 63.4281C25.6795 63.4773 27.0798 63.4743 28.5448 63.4191C29.4983 63.3837 30.4154 63.4748 31.3486 63.4342C31.6484 63.4214 31.9329 63.4439 32.2276 63.4311C32.4489 63.4211 32.6708 63.4156 32.8932 63.4146C34.2473 63.4086 35.62 63.3965 37.0248 63.4251C38.7752 63.4605 40.4256 63.4048 42.2522 63.3438C42.8306 63.325 43.414 63.3965 43.9772 63.3965C45.6776 63.3973 47.234 63.4432 49.114 63.401C49.617 63.3897 50.1064 63.3107 50.6111 63.2873C51.3033 63.2562 52.0047 63.2254 52.7155 63.1947C53.4708 63.1626 54.367 63.1722 55.4041 63.2234C56.3263 63.2685 57.251 63.2527 58.1901 63.2843C58.9954 63.3122 59.794 63.2873 60.5714 63.2776C60.8587 63.2735 61.1622 63.2168 61.4817 63.1074C61.6635 63.0457 61.841 63.0083 62.0143 62.9952C62.4073 62.9659 62.7655 62.9192 63.1279 62.7686C63.3498 62.676 63.5776 62.6542 63.796 62.5525C63.9394 62.4858 64.0947 62.4268 64.2618 62.3756C64.7439 62.2276 65.1543 62.0401 65.4931 61.8132C65.6658 61.6978 65.8563 61.5911 66.0647 61.4933C66.3057 61.3793 66.5058 61.2546 66.665 61.1191C67.0907 60.7572 67.5113 60.3544 67.9268 59.9107C68.1549 59.6678 68.3547 59.4033 68.5263 59.1172C68.5763 59.0329 68.6898 59.0171 68.7533 58.9177C68.8984 58.6913 69.0494 58.4697 69.2063 58.2529C69.5307 57.8027 69.8169 57.2636 69.9752 56.7539C70.0848 56.4021 70.2042 56.0224 70.3335 55.6148C70.4266 55.3227 70.4929 55.0216 70.5325 54.7114C70.6098 54.1116 70.6699 53.515 70.7128 52.9218C70.7269 52.7265 70.7442 52.5363 70.7645 52.3511C70.7859 52.1544 70.7938 51.9641 70.7882 51.7804C70.7758 51.3874 70.7752 50.9994 70.7865 50.6165C70.8102 49.8312 70.756 49.0324 70.7823 48.2404C70.7896 48.0075 70.7916 47.7726 70.7882 47.5357C70.7789 46.9462 70.7789 46.3673 70.7509 45.78C70.699 44.6773 70.6891 43.8617 70.7213 43.3332C70.8127 41.8395 70.8847 40.4279 70.9372 39.0983C70.9451 38.899 70.9341 38.6646 70.9042 38.3951C70.8788 38.1647 70.8743 37.9306 70.8907 37.6927C70.9847 36.3653 70.9635 35.2037 70.9042 33.7024C70.8627 32.6544 70.9254 31.7088 70.9313 30.7414C70.9449 28.5279 70.9474 26.1453 70.9389 23.5936C70.9355 22.6043 70.9968 21.0722 71.1227 18.9973C71.1402 18.7052 71.1456 18.3538 71.1388 17.9433C71.1354 17.7393 71.1845 17.5066 71.1837 17.3402C71.178 16.2561 71.1831 15.183 71.1989 14.1209C71.2218 12.6348 71.1921 11.1847 71.1726 9.6677C71.171 9.53519 71.2556 9.42527 71.2124 9.29578C71.1588 9.13667 71.1334 8.96978 71.1362 8.79512C71.1405 8.55194 70.9923 8.34414 70.9533 8.09946C70.9285 7.94487 70.8517 7.79806 70.723 7.65903C70.6663 7.59729 70.701 7.51523 70.6739 7.44371C70.5056 6.99851 70.2838 6.57288 70.0083 6.16683C69.8601 5.9485 69.6128 5.92667 69.5451 5.64359C69.5349 5.60143 69.5098 5.56805 69.4697 5.54345C69.411 5.50732 69.3712 5.46516 69.3503 5.41697C69.2902 5.27694 69.1293 5.15422 69.0243 5.03376C69.0047 5.01148 68.9763 4.99645 68.9447 4.9916C68.451 4.91481 68.3358 4.57074 68.0369 4.2854C67.5745 3.84372 67.2239 3.52626 66.9851 3.33302C66.8722 3.24167 66.7077 3.19399 66.4915 3.18997C66.1036 3.04241 65.7527 2.82884 65.4389 2.54928C65.4302 2.5415 65.4234 2.53223 65.4189 2.52202C65.4144 2.51181 65.4124 2.50089 65.4128 2.48995C65.4133 2.479 65.4163 2.46826 65.4217 2.45839C65.427 2.44852 65.4346 2.43973 65.4439 2.43258C65.475 2.40849 65.5247 2.3859 65.593 2.36482Z" fill="#FF800F"/>
<path d="M65.349 8.65283C64.2989 7.53933 62.9136 6.75634 61.3114 6.4981C60.971 6.44339 60.4742 6.41253 59.821 6.4055C59.2813 6.39948 58.78 6.39647 58.317 6.39647C44.6534 6.39596 31.2269 6.38818 18.0374 6.37313C16.7994 6.37162 15.4834 6.58619 14.43 7.11922C13.0963 7.7953 11.8633 8.83803 11.2477 10.1081C11.185 10.079 11.1325 10.0773 11.0902 10.1029C11.0077 10.1531 10.9863 10.1375 11.0258 10.0562C11.1517 9.79619 11.2674 9.53269 11.373 9.26567C11.4077 9.17758 11.4568 9.10003 11.5474 9.04959C11.7405 8.94118 12.0335 8.67767 12.0259 8.44805C12.0231 8.36473 12.0462 8.28919 12.0953 8.22143C12.4719 7.70044 12.963 7.22638 13.5688 6.79925C14.1734 6.37313 14.7281 6.17136 15.4911 6.0637C15.7891 6.02153 16.066 5.93797 16.343 5.84687C16.469 5.80554 16.6026 5.78438 16.7376 5.78438C17.5172 5.78438 18.3183 5.78513 19.1408 5.78664C19.5786 5.78739 20.0088 5.72716 20.439 5.69855C20.7439 5.67822 21.0648 5.72114 21.3815 5.70006C21.4747 5.69403 21.576 5.69253 21.6855 5.69554C22.1992 5.7101 22.8488 5.69479 23.634 5.64961C24.441 5.60218 25.2514 5.62778 26.0432 5.58788C26.4209 5.56906 26.7935 5.61875 27.1695 5.60369C28.2348 5.55952 29.3145 5.59365 30.4086 5.70608C30.7253 5.73921 31.0335 5.73544 31.3426 5.72791C32.363 5.70533 33.4173 5.65338 34.4606 5.65263C35.7426 5.65212 36.9708 5.65313 38.1451 5.65564C39.3662 5.6579 40.5873 5.70457 41.849 5.69102C41.982 5.68952 42.1098 5.72566 42.2428 5.7249C43.8913 5.71486 45.6868 5.70683 47.6294 5.70081C49.2355 5.69529 50.9862 5.65012 52.8813 5.56529C53.6858 5.52915 54.5089 5.53317 55.3506 5.57734C56.5684 5.64133 57.6396 5.60971 58.8107 5.53443C59.5317 5.48875 60.2704 5.51786 61.0268 5.62176C61.3678 5.66844 61.7675 5.74096 62.2259 5.83934C62.4597 5.88953 62.679 5.96055 62.8839 6.0524C63.1662 6.17838 63.3734 6.29483 63.5055 6.40174C63.7471 6.59748 63.9862 6.76236 64.2227 6.89637C64.282 6.93 64.3633 7.00178 64.4666 7.1117C64.6761 7.33404 64.8968 7.57296 65.1288 7.82843C65.2956 8.01138 65.3592 8.30274 65.5861 8.42395C65.7775 8.52634 65.8512 8.78609 65.891 8.97581C65.8932 8.98595 65.8923 8.99644 65.8883 9.00614C65.8843 9.01583 65.8773 9.02437 65.8683 9.03081C65.8592 9.03726 65.8483 9.04136 65.8367 9.04268C65.8252 9.044 65.8135 9.04249 65.8029 9.0383C65.7526 9.01872 65.7289 8.98635 65.7318 8.94118C65.734 8.91508 65.7233 8.89425 65.6996 8.87869L65.5565 8.78383C65.5339 8.76877 65.5189 8.74894 65.5116 8.72435C65.4918 8.66111 65.4376 8.63727 65.349 8.65283Z" fill="#FF800F"/>
<path d="M10.3883 13.082C10.3928 13.2581 10.3951 13.4137 10.3951 13.5488C10.4008 27.0593 10.4143 40.5699 10.4358 54.0804C10.438 55.5942 10.9546 57.0046 11.9854 58.3116C11.8872 58.4556 11.7805 58.4878 11.6653 58.408C11.5428 58.3226 11.3602 58.1698 11.1174 57.9495C11.0011 57.8441 10.9091 57.7336 10.8414 57.6182C10.6779 57.3404 10.3816 57.2282 10.1868 56.97C10.0315 56.7637 9.87601 56.5431 9.72019 56.3082C9.67221 56.2359 9.64342 56.1604 9.63382 56.0816C9.61858 55.9604 9.51526 55.9099 9.48309 55.7819C9.31316 55.1003 9.22424 54.4995 9.21634 53.9796C9.20561 53.3466 9.19884 52.7085 9.19602 52.065C9.19517 51.7872 9.15706 51.5086 9.17061 51.2376C9.21069 50.3874 9.21634 49.5366 9.18755 48.6854C9.18416 48.5958 9.22565 48.5062 9.21973 48.4181C9.19009 47.9792 9.26291 47.547 9.27816 47.1043C9.29283 46.6747 9.31288 46.2428 9.33828 45.8086C9.34167 45.7476 9.31626 45.6791 9.30949 45.6166C9.174 44.4703 9.12545 43.2255 9.16384 41.8824C9.20618 40.4135 9.20448 38.9703 9.24005 37.4946C9.24682 37.2259 9.28662 36.9639 9.3476 36.7019C9.373 36.5904 9.38598 36.4825 9.38655 36.3781C9.3874 35.7005 9.45768 35.035 9.39925 34.3461C9.36312 33.9205 9.36594 33.4848 9.40772 33.0391C9.49663 32.1041 9.61011 31.09 9.57708 30.127C9.56184 29.6964 9.60926 29.2529 9.60757 28.8223C9.60474 27.7889 9.6262 26.843 9.67193 25.9847C9.71342 25.2017 9.68124 24.4993 9.6914 23.7532C9.70241 22.8686 9.65076 22.0013 9.66261 21.1031C9.68039 19.7238 9.60587 18.3664 9.65499 17.0142C9.68209 16.2583 9.78286 15.4791 9.85314 14.7119C9.86443 14.587 9.89238 14.4206 9.93698 14.2128C9.94601 14.1676 9.9796 14.072 10.0377 13.9259C10.0699 13.8446 10.0979 13.7465 10.1216 13.6316C10.1526 13.4825 10.2415 13.2993 10.3883 13.082Z" fill="#FF800F"/>
<path d="M34.8723 13.8469C36.1205 14.7413 36.5668 16.3028 35.6564 17.5473C34.9892 18.459 33.9425 18.9137 32.707 18.916C32.0956 18.9175 31.4478 18.919 30.8686 19.0372C30.5778 19.0964 30.2667 19.2038 29.9354 19.3594C28.0289 20.2534 26.6463 21.5345 25.7877 23.2029C25.5251 23.7133 25.353 24.1929 25.2711 24.6416C25.1847 25.1114 25.1413 25.6078 25.1407 26.1308C25.1379 28.8592 25.1325 31.6029 25.1246 34.362C25.1246 34.4056 25.144 34.4474 25.1786 34.4783C25.2132 34.5092 25.2602 34.5266 25.3092 34.5268C27.7441 34.5319 30.1928 34.5339 32.6553 34.5329C33.3576 34.5329 33.901 34.4955 34.2855 34.4207C35.5912 34.167 36.7641 33.4578 37.6592 32.549C38.3425 31.8549 38.8642 31.0952 39.0293 30.1722C39.1792 29.3313 39.3198 28.598 39.8685 27.9354C41.491 25.9727 44.587 26.843 45.2432 29.006C45.4532 29.6966 45.4772 30.3484 45.3152 30.9612C44.8201 32.8314 43.8968 34.4744 42.5453 35.8903C42.193 36.2602 41.7589 36.6555 41.2429 37.0761C39.3105 38.6533 36.8547 39.669 34.3109 40.016C33.8078 40.0848 33.2377 40.1197 32.6003 40.1207C30.0486 40.1252 27.6182 40.1312 25.3092 40.1388C25.1997 40.1388 25.1438 40.1857 25.1415 40.2795C25.0907 42.4348 25.0837 44.7263 25.1204 47.154C25.1277 47.6123 25.019 48.0522 24.7943 48.4738C24.0492 49.8712 22.1751 50.8213 20.5366 49.89C19.6703 49.3976 19.0258 48.6131 18.9716 47.6991C18.9598 47.4923 18.9606 47.0418 18.9742 46.3477C19.1413 46.4842 19.2669 46.6674 19.351 46.8973C19.3589 46.9194 19.373 46.9375 19.3934 46.9515C19.753 47.2115 20.1555 47.3465 20.6009 47.3566C20.8507 47.3626 21.0845 47.4198 21.33 47.4461C22.1591 47.535 22.7036 47.0539 22.8238 46.359C22.9384 45.697 23.0333 45.0661 23.1083 44.4663C23.1744 43.9398 23.1834 43.3279 23.1354 42.6308C23.1129 42.307 23.0547 41.9868 22.961 41.6701C22.8944 41.4467 22.7211 41.3102 22.441 41.2605C21.9897 41.18 21.5942 41.2297 21.1666 41.2191C20.9741 41.2141 20.7816 41.2026 20.5891 41.1845C20.3147 41.1597 20.0319 41.2342 19.7575 41.2282C19.5297 41.2229 19.3697 41.3087 19.1918 41.4247C19.1359 41.4613 19.0704 41.4641 18.9954 41.4329L18.9767 40.2667C18.9766 40.2567 18.9742 40.2468 18.9697 40.2376C18.9651 40.2283 18.9585 40.22 18.9502 40.2131C18.9419 40.2063 18.932 40.2009 18.9213 40.1974C18.9106 40.194 18.8992 40.1924 18.8878 40.193C18.5011 40.2085 18.0746 40.2068 17.6083 40.1877C16.1458 40.1267 14.8502 39.4348 14.3709 38.2076C14.0073 37.2771 14.1394 36.4148 14.7672 35.6208C15.6835 34.4606 17.2331 34.4786 18.6609 34.4636C18.8805 34.4616 18.9903 34.363 18.9903 34.1677L18.9894 32.3571L19.1571 32.4376C19.1825 32.4497 19.1961 32.4687 19.1977 32.4948C19.2311 33.0233 19.2367 33.5122 19.2147 33.9614C19.1969 34.3326 19.4738 34.5238 19.8794 34.4884C20.0894 34.4704 20.2876 34.4636 20.4968 34.4809C21.286 34.5462 22.0662 34.5637 22.8374 34.5336C22.8605 34.5331 22.8755 34.5231 22.8822 34.5035C22.9494 34.3203 22.9878 34.1376 22.9974 33.9554C23.0533 32.9255 23.2006 31.9422 23.2311 30.9484C23.2836 29.2304 23.3497 27.3497 23.5682 25.7867C23.6833 24.9631 23.8919 24.216 24.194 23.5454C24.4249 23.0335 24.6253 22.5426 24.7952 22.0728C24.9696 21.5879 25.3126 21.2183 25.7114 20.759C25.9779 20.4524 26.2593 20.1999 26.5557 20.0016C26.7962 19.8405 27.0139 19.6772 27.2086 19.5115C27.599 19.1803 28.0224 18.8874 28.4196 18.5682C28.4788 18.52 28.5474 18.4849 28.6253 18.4628C29.0747 18.3358 29.5125 18.1877 29.9387 18.0186C30.6077 17.7521 31.397 17.7882 32.0956 17.6948C32.9294 17.5834 33.7093 17.3661 34.4353 17.0428C34.7851 16.8878 35.0264 16.5708 35.1001 16.2275C35.1396 16.0403 35.2062 15.8568 35.2999 15.6771C35.3728 15.5371 35.3118 15.3956 35.2322 15.2706C35.2169 15.246 35.2088 15.2199 35.2076 15.1923C35.1992 14.9378 35.1227 14.7067 34.9781 14.4989C34.8523 14.4166 34.7594 14.3174 34.6995 14.2015C34.7103 14.0705 34.671 13.9714 34.5818 13.9041C34.5564 13.8855 34.5454 13.866 34.5488 13.8454C34.5533 13.8178 34.5703 13.8093 34.5996 13.8198C34.6849 13.8504 34.7758 13.8594 34.8723 13.8469ZM14.9713 36.3382C14.8471 36.5345 14.8657 36.735 15.0272 36.9398C15.1754 37.128 15.4125 37.1529 15.6183 37.265C15.7679 37.3468 15.9302 37.4046 16.1052 37.4382C16.484 37.512 16.8639 37.5566 17.245 37.5722C17.6608 37.5888 18.1079 37.5722 18.5127 37.6686C18.6911 37.7107 18.8712 37.727 19.0529 37.7175C19.8207 37.6774 20.5786 37.6666 21.3266 37.6851C21.5152 37.6897 21.7015 37.6851 21.8855 37.6716C22.3471 37.637 22.7738 37.6031 23.254 37.6558C23.4818 37.6806 23.6766 37.5782 23.9162 37.5978C24.5434 37.648 25.0179 37.6638 25.3397 37.6452C26.6918 37.5654 28.0447 37.5526 29.3985 37.6068C29.8092 37.6226 30.2538 37.5782 30.6145 37.5925C31.1683 37.6156 31.7436 37.6211 32.3403 37.6091C32.5373 37.6056 32.738 37.5745 32.9424 37.5157C33.2546 37.4259 33.5868 37.3692 33.9391 37.3456C34.6053 37.2999 35.2113 37.1835 35.7572 36.9963C36.0621 36.8924 36.3737 36.8773 36.6769 36.7456C37.3492 36.4542 37.9987 36.2592 38.5492 35.7886C38.9664 35.4318 39.3901 35.0531 39.8202 34.6526C40.1307 34.3635 40.3941 34.0771 40.6103 33.7935C40.8339 33.4999 41.045 33.1764 41.2437 32.8231C41.3736 32.5922 41.5096 32.3909 41.6519 32.2193C42.0725 31.7123 42.497 31.1442 42.9255 30.5148C42.9958 30.4124 43.1211 30.4041 43.1643 30.2784C43.2738 29.9622 43.428 29.652 43.6267 29.3478C43.6817 29.2635 43.658 29.1581 43.7003 29.064C43.894 28.6358 43.9976 28.3292 44.0111 28.144C44.023 27.9854 43.9219 27.82 43.708 27.6478C42.9247 27.0478 41.8484 26.8325 40.9355 27.3527C40.0548 27.8549 39.7008 28.5897 39.5264 29.4773C39.431 29.9642 39.2723 30.5138 39.0505 31.1261C38.7617 31.9234 38.0995 32.5671 37.4144 33.1792C36.8239 33.7072 36.164 34.115 35.4346 34.4026C35.1664 34.508 34.9101 34.5815 34.6657 34.6232C34.3634 34.6744 34.1152 34.7738 33.8248 34.776C31.7766 34.7911 29.9729 34.7961 28.4136 34.7911C27.4703 34.7881 26.4888 34.8445 25.5192 34.834C24.9679 34.8272 24.4014 34.8988 23.8417 34.8905C22.3598 34.8684 20.4903 34.8227 18.2332 34.7534C17.7359 34.7384 17.2292 34.7723 16.7132 34.8551C16.3575 34.9123 16.0027 35.0681 15.6487 35.3226C15.249 35.6095 14.9992 35.8797 14.9713 36.3382Z" fill="#FF800F"/>
<path d="M57.6066 20.2192C59.1676 21.987 60.4019 23.9198 61.3097 26.0178C61.8415 27.247 62.2731 28.5641 62.6045 29.9689C62.7869 30.7429 62.9074 31.441 62.9661 32.0634C63.1688 34.2282 63.1027 36.4384 62.7679 38.694C62.2116 42.4455 60.4426 46.0368 57.8505 49.0279C56.9811 50.0308 55.9344 50.9744 54.7105 51.8587C51.9473 53.8553 48.6549 55.014 45.1025 54.8612C42.1404 54.7347 39.1723 53.4322 37.5684 51.2135C37.0626 50.5148 36.74 49.8144 36.6005 49.1122C36.3465 47.8331 36.8164 46.2701 38.1087 45.512C38.9199 45.0367 39.7967 44.8924 40.7389 45.0791C41.1877 45.1684 41.6094 45.3808 42.004 45.716C42.6854 46.2957 43.0679 47.0095 43.1515 47.8572C43.2158 48.5032 43.6367 48.9263 44.3218 49.1393C44.9112 49.3223 45.448 49.4315 46.062 49.4044C47.9428 49.32 49.6745 48.5325 51.1166 47.4469C53.1287 45.9326 54.6549 44.1006 55.6953 41.9509C55.8286 42.0046 55.8698 42.1007 55.819 42.2393C55.6598 42.6734 55.4636 43.0699 55.2304 43.4288C55.052 43.7028 54.9058 43.9613 54.7918 44.2043C54.6749 44.4527 54.4937 44.653 54.343 44.8856C54.2577 45.0166 54.1409 45.1451 53.9924 45.2711C53.8061 45.4277 53.6557 45.5793 53.5411 45.7258C53.1893 46.1775 52.834 46.5357 52.4749 46.8002C52.0439 47.1171 51.6306 47.532 51.1412 47.8135C50.9769 47.9084 50.8702 48.074 50.7051 48.1425C50.2754 48.3222 49.8763 48.5506 49.5077 48.8277C49.4069 48.9037 49.2994 48.8766 49.1927 48.9346C48.8178 49.1383 48.3913 49.3055 47.9131 49.436C47.6227 49.515 47.3297 49.5098 47.0375 49.5813C46.6271 49.6822 46.2649 49.7253 45.951 49.7108C45.2981 49.6799 44.5275 49.6332 43.906 49.4668C43.4854 49.3539 43.0434 49.1486 42.5799 48.851C42.2462 48.6364 42.1556 48.2856 42.0244 47.9634C41.8118 47.4424 42.076 46.9643 41.9075 46.4456C41.7957 46.1 41.3257 45.7868 41.0158 45.5775C40.8066 45.4367 40.5763 45.3306 40.3129 45.311C40.086 45.2944 39.8718 45.2116 39.6406 45.2425C39.1472 45.3077 38.6978 45.4558 38.2924 45.6867C38.0875 45.8034 37.9859 45.9871 37.8089 46.1331C37.6006 46.3048 37.4219 46.6285 37.3008 46.8416C37.2246 46.9756 37.1631 47.1605 37.1162 47.3964C37.079 47.5847 37.0383 47.7721 36.9943 47.9588C36.9548 48.1255 36.97 48.2858 37.04 48.4399C37.0948 48.5614 37.1413 48.6856 37.1797 48.8126C37.3005 49.2136 37.5004 49.5554 37.7793 49.838C38.1598 50.223 38.6504 50.5879 39.251 50.9327C39.4368 51.0391 39.6344 51.1056 39.8438 51.1322C40.2105 51.1789 40.5602 51.2429 40.8837 51.4017C41.1513 51.5322 41.4302 51.6251 41.7204 51.6803C42.3157 51.794 42.8424 52.0078 43.3598 52.2645C43.5444 52.3564 43.7643 52.4061 44.0195 52.4136C44.2032 52.4189 44.3751 52.51 44.547 52.5017C45.3058 52.4625 46.0459 52.5182 46.8063 52.4708C48.1172 52.3885 49.3725 52.0768 50.5721 51.5357C51.2699 51.221 52.0128 50.7661 52.8009 50.1708C53.5597 49.5981 54.2154 49.0914 54.7681 48.6507C55.2237 48.2878 55.6623 47.867 56.0205 47.4296C56.1481 47.274 56.2816 47.1174 56.4211 46.9598C56.5509 46.8132 56.6714 46.6549 56.7827 46.4847C57.074 46.038 57.3963 45.6021 57.7497 45.177C57.8609 45.043 57.953 44.8768 58.0258 44.6786C58.0732 44.5511 58.1409 44.4188 58.229 44.2818C58.3374 44.1137 58.4097 43.9912 58.4458 43.9144C58.8489 43.0511 59.2455 42.2137 59.6356 41.4021C59.6711 41.3268 59.6449 41.2681 59.6652 41.189C59.8323 40.5215 60.0643 39.8218 60.3613 39.09C60.4909 38.77 60.4866 38.4621 60.5747 38.1421C60.5942 38.0729 60.5611 38.0074 60.5705 37.9321C60.6789 37.0023 60.96 36.0943 60.9981 35.1592C61.0331 34.302 61.0495 33.3825 61.0472 32.4007C61.0464 31.7901 60.9803 31.2051 60.8304 30.6066C60.7553 30.3065 60.7119 30.0144 60.7 29.7303C60.6678 28.936 60.5679 28.1628 60.3977 27.4137C60.3627 27.2591 60.3136 27.0957 60.2504 26.9236C60.1979 26.7805 60.1595 26.6227 60.1352 26.45C60.1132 26.2942 59.9692 26.1775 59.9311 26.0066C59.8165 25.4946 59.7019 24.9944 59.5873 24.5061C59.5653 24.4147 59.5255 24.3304 59.4679 24.2531C59.3485 24.0935 59.2706 23.9279 59.2274 23.7427C59.202 23.6337 59.1286 23.5647 59.0072 23.5356C58.9664 23.5258 58.9297 23.5056 58.9016 23.4775C58.8735 23.4495 58.8552 23.4147 58.8489 23.3775C58.8207 23.2044 58.7984 23.0332 58.782 22.8641C58.7667 22.6969 58.5881 22.4297 58.4543 22.313C58.1918 22.0851 58.0275 21.8058 57.9614 21.475C57.9242 21.2921 57.8141 21.1671 57.7116 21.0105C57.6202 20.8704 57.5499 20.6371 57.3797 20.4752C57.3546 20.4514 57.3384 20.4214 57.3332 20.3891C57.3281 20.3569 57.3343 20.324 57.351 20.295C57.3677 20.266 57.394 20.2423 57.4264 20.2271C57.4589 20.2119 57.4957 20.206 57.5321 20.2102L57.6066 20.2192Z" fill="#FF800F"/>
<path d="M43.508 1.19787C48.8972 1.19235 54.2869 1.19185 59.6771 1.19636C60.4348 1.19737 60.9987 1.21468 61.3691 1.24831C62.8476 1.38282 64.2556 1.75499 65.593 2.36482C65.5247 2.3859 65.475 2.40849 65.444 2.43258C65.4346 2.43973 65.427 2.44852 65.4217 2.45839C65.4163 2.46826 65.4133 2.479 65.4129 2.48995C65.4124 2.50089 65.4144 2.51181 65.4189 2.52202C65.4234 2.53223 65.4302 2.5415 65.4389 2.54928C65.7528 2.82884 66.1036 3.04241 66.4915 3.18997C66.8336 3.40831 67.0927 3.56716 67.24 3.76366C67.2477 3.77371 67.2527 3.78515 67.2547 3.79715C67.2568 3.80916 67.2558 3.82144 67.2518 3.8331C67.2478 3.84477 67.241 3.85553 67.2318 3.86461C67.2226 3.87369 67.2112 3.88087 67.1986 3.88563C67.0072 3.9579 66.8031 3.96844 66.6134 3.87433C66.3701 3.75287 66.1285 3.69791 65.8885 3.70945C65.5238 3.72602 65.1303 3.70971 64.7081 3.66052C64.5415 3.64094 64.3806 3.63743 64.2254 3.64998C64.0238 3.66604 63.8706 3.66453 63.7656 3.64546C63.446 3.58724 63.1454 3.48786 62.8637 3.34732C62.7677 3.29964 62.6684 3.27178 62.5656 3.26375C62.287 3.24192 62.1109 3.02058 61.8179 3.10791C61.7874 3.11694 61.7566 3.11895 61.7256 3.11393C61.5291 3.08005 61.3352 3.01982 61.1354 3.01756C60.7289 3.01305 60.3213 2.99473 59.9126 2.9626C59.2165 2.90764 58.5433 2.92722 57.8556 2.91141C57.688 2.90689 57.5059 2.93399 57.3475 2.98368C56.9546 3.10716 56.5058 3.17316 56.0011 3.18169C55.0154 3.19825 54.0269 3.18144 53.0356 3.13125C52.8352 3.12071 52.4281 3.14555 51.8145 3.20578C51.417 3.24543 51.0134 3.27429 50.6035 3.29236C48.3086 3.39551 46.2695 3.48058 44.1152 3.4452C43.8646 3.44068 43.619 3.48962 43.3768 3.54533C43.221 3.58147 43.0372 3.59928 42.8255 3.59878C42.5336 3.59778 42.2378 3.60455 41.9381 3.61911C41.7391 3.6289 41.5443 3.57093 41.347 3.60782C40.9337 3.68461 40.5171 3.61986 40.0971 3.64094C39.7679 3.657 39.4397 3.66729 39.1122 3.67181C38.8057 3.67633 38.5178 3.74785 38.2188 3.76366C37.8197 3.78374 37.4189 3.82239 37.0164 3.8796C36.9221 3.89265 36.7505 3.88763 36.5015 3.86455C36.1475 3.83217 35.8181 3.88111 35.4667 3.86756C35.0763 3.8525 34.6817 3.86756 34.2879 3.85551C33.9145 3.84422 33.5766 3.93682 33.1998 3.89014C32.9898 3.86404 32.7826 3.85727 32.5782 3.86982C32.06 3.90244 31.5711 3.93356 31.1115 3.96317C30.7381 3.98726 30.4137 3.83518 30.0395 3.82766C29.8707 3.82414 29.7044 3.80632 29.5407 3.7742C29.3832 3.74333 29.2307 3.76893 29.0724 3.78022C28.9595 3.78826 28.8418 3.78675 28.7193 3.77571C27.9825 3.71096 27.398 3.70268 26.9655 3.75086C26.5658 3.79503 26.2353 3.77696 25.9739 3.69666C25.9594 3.69215 25.944 3.69029 25.9286 3.6912C25.9132 3.6921 25.8981 3.69575 25.8841 3.70193C25.3557 3.94134 24.884 3.76893 24.3438 3.84798C24.1846 3.87107 24.0296 3.87308 23.8789 3.85401C23.6017 3.81837 23.3347 3.81536 23.0778 3.84497C22.9446 3.86003 22.8164 3.85702 22.6933 3.83594C22.4619 3.79729 22.2476 3.80432 22.0506 3.85702C21.7779 3.9298 21.5205 3.92176 21.2783 3.83293C21.1504 3.78549 21.0217 3.83895 20.8989 3.87057C20.7866 3.89918 20.6666 3.91173 20.539 3.90821C20.2071 3.89918 19.9175 3.77571 19.5889 3.86304C19.4489 3.90018 19.3131 3.91348 19.1816 3.90294C18.8468 3.87534 18.5174 3.8909 18.1934 3.94962C17.8224 4.01587 17.4592 3.93005 17.0984 4.03244C16.6217 4.1672 16.1466 4.23195 15.636 4.23722C15.4553 4.23872 15.262 4.26909 15.0559 4.32832C14.5546 4.47186 14.1334 4.60688 13.7925 4.73336C13.3157 4.91104 12.8762 5.23478 12.3774 5.43353C12.1906 5.50782 12.011 5.61146 11.8389 5.74447C11.7228 5.83406 11.589 5.79943 11.4722 5.87698C11.1707 6.07825 10.9059 6.26872 10.6779 6.44841C10.3787 6.6833 10.038 7.03289 9.65576 7.49716C9.15501 8.10598 8.79145 8.69498 8.56507 9.26416C8.41038 9.65264 8.25682 10.0763 8.1044 10.535C8.01887 10.7895 7.98754 11.0342 7.84612 11.2691C7.73603 11.4535 7.74704 11.7012 7.69115 11.906C7.52405 12.5108 7.36202 13.1287 7.20508 13.7596C7.17968 13.8597 7.08737 13.9124 7.05011 14.0133C6.93551 14.325 6.8593 14.6259 6.82147 14.916C6.72494 15.6533 6.64308 16.428 6.5759 17.2401C6.54089 17.6612 6.52198 18.1649 6.51916 18.7511C6.51182 20.1771 6.45311 21.6015 6.34302 23.0244C6.3306 23.1795 6.34105 23.3246 6.37435 23.4596C6.42121 23.6513 6.44351 23.7916 6.44125 23.8804C6.4373 24.0235 6.43024 24.1645 6.42008 24.3036C6.345 25.2923 6.2383 26.2788 6.09999 27.2631C6.04833 27.6297 5.91961 27.9821 5.81969 28.342C5.69351 28.7922 5.68251 29.2718 5.70537 29.7393C5.7384 30.3853 5.69521 31.1547 5.42931 31.7721C5.38471 31.8765 5.33983 31.8765 5.29467 31.7721C5.20885 31.5733 5.15607 31.3723 5.13631 31.169C5.09736 30.7625 5.07336 30.2927 5.06433 29.7596C5.06179 29.6219 4.95509 29.5104 4.96864 29.3817C5.03864 28.7312 5.01945 28.1058 4.91106 27.5055C4.90598 27.4794 4.88876 27.4636 4.8594 27.4581L4.78658 27.4445C4.76851 22.8219 4.76908 18.1993 4.78827 13.5766C4.79109 12.8825 4.80718 12.3808 4.83654 12.0716C5.01945 10.1435 5.72315 8.27864 6.89176 6.6434C6.97249 6.65645 7.07044 6.59974 7.1856 6.47325C7.18874 6.4699 7.1927 6.46723 7.19717 6.46544C7.20164 6.46365 7.20652 6.4628 7.21142 6.46295C7.21632 6.46309 7.22113 6.46423 7.22546 6.46628C7.22979 6.46833 7.23354 6.47123 7.23641 6.47476C7.25899 6.50236 7.26746 6.53449 7.26182 6.57113C7.25165 6.63939 7.22315 6.70062 7.17629 6.75483C6.90023 7.07455 6.67328 7.42463 6.49545 7.80509C6.39552 8.02116 6.41415 8.25907 6.25749 8.45331C6.13555 8.60338 6.04325 8.76224 5.98059 8.92988C5.80727 9.39014 5.63537 9.85566 5.46487 10.3265C5.40221 10.4974 5.42931 10.6555 5.38866 10.8249C5.38189 10.8525 5.39431 10.8678 5.42592 10.8708C5.52641 10.8813 5.58879 10.8434 5.61307 10.7571C5.68928 10.4886 5.83352 10.1862 6.04579 9.84989C6.12708 9.72115 6.25072 9.65941 6.31508 9.53142C6.36843 9.42753 6.40484 9.31761 6.48359 9.22501C6.72324 8.94042 6.80708 8.62572 7.01116 8.32833C7.16951 8.0957 7.27706 7.84273 7.46421 7.62666C7.64317 7.41836 7.80886 7.19877 7.96129 6.96789C8.06573 6.81029 8.18654 6.6695 8.32372 6.54553C8.52103 6.36785 8.61249 6.14274 8.80302 5.96431C9.2778 5.52012 9.79633 5.1231 10.3586 4.77326C10.5492 4.65582 10.6728 4.49696 10.8667 4.39005C10.9638 4.33635 11.0558 4.2721 11.1428 4.19732C11.2715 4.0869 11.3621 4.02114 11.4146 4.00006C11.6833 3.89466 11.936 3.77772 12.1725 3.64922C12.5857 3.42487 12.833 3.29663 12.9143 3.26451C13.6426 2.97691 14.2345 2.79948 14.6901 2.73222C15.1214 2.66848 15.6368 2.5829 16.2364 2.47549C16.8037 2.37361 17.418 2.31212 18.079 2.29104C18.2696 2.28502 18.4271 2.24963 18.6083 2.21726C18.6498 2.2094 18.6929 2.21201 18.7328 2.22479C19.01 2.31313 19.273 2.32693 19.522 2.2662C19.7331 2.2145 19.9135 2.19066 20.0631 2.19467C22.1793 2.25114 24.3285 2.13821 26.3482 2.16531C26.653 2.16908 26.9494 2.08776 27.25 2.10583C27.77 2.13695 28.2911 2.13996 28.8133 2.11487C29.1096 2.10056 29.3705 2.18865 29.6736 2.15402C30.1504 2.09981 30.6111 2.19919 31.0853 2.1239C31.2055 2.10483 31.3232 2.09529 31.4384 2.09529C32.052 2.0958 32.6781 2.09529 33.3166 2.09379C33.5029 2.09329 33.6802 2.07823 33.8484 2.04862C34.0906 2.00645 34.2651 1.98512 34.3718 1.98462C34.6114 1.98312 34.8485 1.99893 35.0873 1.9658C35.2403 1.94472 35.4029 1.93845 35.5751 1.94698C35.7315 1.95451 35.8935 1.95651 36.0612 1.953C36.8284 1.93543 37.6015 1.93568 38.3806 1.95375C38.677 1.96053 39.0894 1.92364 39.4425 1.93041C40.4084 1.94848 41.3876 1.88775 42.3801 1.74822C42.423 1.7422 42.4422 1.72011 42.4377 1.68197L42.4309 1.62475C42.4281 1.60066 42.4365 1.58033 42.4563 1.56377C42.6217 1.42423 42.8032 1.33891 43.0008 1.30779C43.0121 1.30628 43.0183 1.30026 43.0194 1.28972C43.0194 1.28621 43.0177 1.2837 43.0144 1.28219C43.0025 1.27767 43.0028 1.27466 43.0152 1.27316C43.1789 1.24856 43.3432 1.22347 43.508 1.19787Z" fill="#FF800F"/>
<path d="M34.6995 14.2015C34.7593 14.3174 34.8522 14.4166 34.9781 14.4989C34.9481 14.5772 34.9349 14.656 34.9383 14.7353C34.939 14.7506 34.9335 14.7657 34.9227 14.7777C34.912 14.7897 34.8968 14.7979 34.8798 14.8008C34.7297 14.8259 34.5775 14.8244 34.4234 14.7963C33.9619 14.7104 33.4606 15.1283 33.3098 15.4535C33.2404 15.6021 33.1117 15.6874 32.9237 15.7095C32.8836 15.714 32.8559 15.7 32.8407 15.6673L32.8212 15.6259C32.8048 15.5913 32.7825 15.588 32.7543 15.6162C32.7142 15.6558 32.6888 15.7017 32.6781 15.7539C32.6725 15.782 32.6535 15.7983 32.6214 15.8029C32.3106 15.8443 32.0023 15.8232 31.6899 15.8495C31.3308 15.8792 30.9924 15.908 30.6745 15.9361C30.5114 15.9507 30.3299 15.9898 30.13 16.0536C29.1071 16.3826 28.1155 16.7116 27.1992 17.2168C26.8413 17.414 26.4791 17.6098 26.1127 17.804C25.9885 17.8698 25.8714 17.9423 25.7613 18.0216C25.2668 18.3784 24.7864 18.7054 24.32 19.0026C24.2975 19.0166 24.2836 19.0357 24.2785 19.0598C24.2661 19.1145 24.2359 19.1607 24.1879 19.1983C23.8916 19.4327 23.6271 19.6814 23.3945 19.9444C23.2175 20.1447 22.9787 20.2787 22.8068 20.4752C22.6346 20.6725 22.4655 20.9008 22.2995 21.1603C22.1398 21.4093 21.9741 21.6507 21.8025 21.8846C21.5795 22.1872 21.3726 22.5353 21.1817 22.9288C21.0581 23.1825 21.0869 23.4265 21.009 23.6839C20.869 24.1442 20.7614 24.5831 20.6864 25.0007C20.4814 26.1471 20.3149 27.2475 20.1867 28.3021C20.1698 28.4421 20.1791 28.5716 20.1461 28.7131C20.0343 29.1915 19.8904 29.6567 19.7142 30.109C19.6676 30.2294 19.7371 30.3175 19.6973 30.4289C19.6431 30.581 19.6126 30.7414 19.6058 30.91C19.6049 30.931 19.5984 30.9515 19.5866 30.9697C19.5749 30.9879 19.5583 31.0032 19.5384 31.0145C19.5185 31.0258 19.4958 31.0326 19.4723 31.0343C19.4488 31.036 19.4252 31.0327 19.4034 31.0245C19.2925 30.9816 19.2646 30.8694 19.2637 30.7707C19.2496 29.0878 19.2507 27.5234 19.2671 26.0773C19.2781 25.143 19.3848 24.1763 19.6778 23.2676C20.2215 21.5832 21.1151 20.0029 22.3588 18.5268C22.579 18.2658 22.837 18.002 23.1328 17.7355C23.7146 17.213 24.2785 16.6679 24.9433 16.2493C25.4367 15.9381 25.8991 15.6428 26.3304 15.3632C26.4568 15.2814 26.5968 15.2036 26.7504 15.1298C27.2963 14.8683 27.8103 14.6389 28.2925 14.4417C28.5372 14.3423 28.7557 14.1872 29.0055 14.1104C29.4994 13.9588 29.9875 13.8248 30.4696 13.7084C30.6728 13.6587 30.8439 13.5962 31.0319 13.5254C31.1155 13.4938 31.2058 13.474 31.3029 13.4659C31.8256 13.4223 32.1966 13.4055 32.4156 13.4155C32.9779 13.4411 33.5337 13.5651 34.083 13.7874C34.2281 13.8466 34.4336 13.9847 34.6995 14.2015Z" fill="#FF800F"/>
<path d="M43.7079 27.6478L43.6418 27.8428C43.6294 27.8789 43.602 27.8975 43.5597 27.8985C43.4925 27.9005 43.4462 27.9286 43.4208 27.9828C43.4017 28.0232 43.3671 28.0558 43.3234 28.0747C42.9401 28.2438 42.5824 28.4265 42.2505 28.6228C41.85 28.8599 41.5231 29.2033 41.1717 29.5082C41.0666 29.5985 40.9396 29.7476 40.8888 29.8492C40.6607 30.3065 40.4214 30.7587 40.1707 31.2059C40.0962 31.3394 40.0347 31.4749 39.9861 31.6125C39.7465 32.29 39.318 32.9375 38.8412 33.5699C38.6024 33.8854 38.3018 34.0819 37.9944 34.3333C37.7883 34.5005 37.5453 34.6513 37.2653 34.7858C36.9158 34.954 36.5661 35.1261 36.2161 35.3023C35.5115 35.6569 34.757 35.8466 34.0059 35.8564C33.7874 35.8594 33.587 35.8795 33.4047 35.9166C33.1969 35.9588 33.005 35.9889 32.8288 36.007C32.3281 36.0582 31.816 36.1021 31.2927 36.1387C31.0979 36.153 30.8896 36.147 30.6965 36.1252C30.0744 36.0539 29.452 36.0165 28.8293 36.013C28.2789 36.0107 27.7649 36.0996 27.2144 36.1169C26.9852 36.1244 26.7724 36.1387 26.5759 36.1598C26.0876 36.212 25.4387 36.1927 24.6291 36.1018C23.983 36.0296 23.2598 36.202 22.7246 36.1493C22.2278 36.1006 21.7564 36.1011 21.3104 36.1508C20.7829 36.2095 20.296 36.2253 19.7701 36.2396C19.3281 36.2517 18.9312 36.3126 18.5795 36.4226C17.8419 36.6537 16.9993 36.8592 16.2236 36.7403C15.9222 36.6936 15.5769 36.6271 15.188 36.5408C15.16 36.5349 15.1352 36.5208 15.1177 36.5009L14.9712 36.3382C14.9991 35.8797 15.2489 35.6095 15.6486 35.3226C16.0026 35.0681 16.3574 34.9123 16.7131 34.8551C17.2291 34.7723 17.7358 34.7384 18.2331 34.7534C20.4902 34.8227 22.3597 34.8684 23.8416 34.8905C24.4013 34.8987 24.9678 34.8272 25.5191 34.834C26.4887 34.8445 27.4702 34.7881 28.4135 34.7911C29.9728 34.7961 31.7765 34.7911 33.8247 34.776C34.1151 34.7738 34.3633 34.6744 34.6656 34.6232C34.91 34.5815 35.1663 34.508 35.4345 34.4026C36.1639 34.115 36.8238 33.7072 37.4143 33.1792C38.0994 32.5671 38.7616 31.9234 39.0504 31.1261C39.2722 30.5138 39.4309 29.9642 39.5263 29.4773C39.7007 28.5897 40.0547 27.8549 40.9354 27.3527C41.8483 26.8325 42.9246 27.0478 43.7079 27.6478Z" fill="#FF800F"/>
<path d="M43.5081 1.19787C43.3433 1.22346 43.179 1.24856 43.0153 1.27315C43.0029 1.27466 43.0026 1.27767 43.0144 1.28219C43.0178 1.28369 43.0195 1.2862 43.0195 1.28972C43.0184 1.30026 43.0122 1.30628 43.0009 1.30779C42.8033 1.3389 42.6218 1.42423 42.4564 1.56376C42.4366 1.58033 42.4282 1.60065 42.431 1.62475L42.4378 1.68196C42.4423 1.72011 42.4231 1.74219 42.3802 1.74822C41.3877 1.88775 40.4085 1.94848 39.4426 1.93041C39.0895 1.92364 38.6771 1.96053 38.3807 1.95375C37.6016 1.93568 36.8285 1.93543 36.0612 1.953C35.8936 1.95651 35.7316 1.9545 35.5752 1.94698C35.403 1.93844 35.2404 1.94472 35.0874 1.9658C34.8486 1.99892 34.6115 1.98311 34.3719 1.98462C34.2652 1.98512 34.0907 2.00645 33.8485 2.04861C33.6803 2.07823 33.503 2.09328 33.3167 2.09379C32.6782 2.09529 32.0521 2.09579 31.4385 2.09529C31.3233 2.09529 31.2056 2.10483 31.0854 2.1239C30.6111 2.19919 30.1505 2.09981 29.6737 2.15402C29.3706 2.18865 29.1097 2.10056 28.8134 2.11487C28.2912 2.13996 27.7701 2.13695 27.2501 2.10583C26.9495 2.08776 26.6531 2.16907 26.3483 2.16531C24.3286 2.1382 22.1794 2.25114 20.0632 2.19467C19.9136 2.19066 19.7332 2.2145 19.5221 2.26619C19.2731 2.32693 19.0101 2.31312 18.7329 2.22479C18.693 2.21201 18.6499 2.2094 18.6084 2.21726C18.4272 2.24963 18.2697 2.28502 18.0791 2.29104C17.418 2.31212 16.8038 2.3736 16.2365 2.47549C15.6369 2.5829 15.1215 2.66848 14.6902 2.73222C14.2346 2.79948 13.6427 2.97691 12.9144 3.2645C12.8331 3.29663 12.5858 3.42487 12.1726 3.64922C11.936 3.77771 11.6834 3.89466 11.4147 4.00006C11.3622 4.02114 11.2716 4.08689 11.1429 4.19731C11.0559 4.2721 10.9639 4.33634 10.8668 4.39005C10.6729 4.49696 10.5492 4.65581 10.3587 4.77326C9.79643 5.1231 9.2779 5.52011 8.80312 5.96431C8.61258 6.14274 8.52113 6.36785 8.32382 6.54553C8.18663 6.6695 8.06582 6.81029 7.96138 6.96789C7.80895 7.19877 7.64326 7.41836 7.4643 7.62665C7.27715 7.84273 7.16961 8.09569 7.01125 8.32833C6.80717 8.62572 6.72334 8.94042 6.48369 9.225C6.40493 9.31761 6.36852 9.42753 6.31517 9.53142C6.25081 9.65941 6.12718 9.72115 6.04588 9.84989C5.83362 10.1862 5.68938 10.4886 5.61316 10.7571C5.58889 10.8434 5.5265 10.8813 5.42602 10.8708C5.3944 10.8678 5.38198 10.8525 5.38876 10.8249C5.4294 10.6555 5.40231 10.4974 5.46497 10.3265C5.63546 9.85566 5.80737 9.39013 5.98068 8.92988C6.04334 8.76224 6.13565 8.60338 6.25759 8.45331C6.41425 8.25907 6.39562 8.02116 6.49554 7.80508C6.67337 7.42463 6.90032 7.07455 7.17638 6.75483C7.22324 6.70062 7.25175 6.63938 7.26191 6.57112C7.26756 6.53448 7.25909 6.50236 7.23651 6.47476C7.23363 6.47122 7.22988 6.46832 7.22555 6.46628C7.22122 6.46423 7.21642 6.46309 7.21152 6.46294C7.20661 6.4628 7.20174 6.46365 7.19726 6.46544C7.19279 6.46722 7.18883 6.4699 7.1857 6.47325C7.07053 6.59973 6.97258 6.65645 6.89185 6.6434C7.82053 5.33992 8.88102 4.27361 10.0733 3.44444C10.9766 2.81705 11.9871 2.30936 13.1049 1.92138C14.3328 1.49525 15.4489 1.2724 16.7606 1.21744C17.5679 1.18381 18.5999 1.16725 19.8566 1.16775C26.7796 1.17026 34.2245 1.17704 42.1913 1.18808C42.6294 1.18908 43.0684 1.19234 43.5081 1.19787Z" fill="#FF800F"/>
</g>
</g>
<defs>
<filter id="filter0_d_13_288" x="0" y="0.25" width="76.084" height="73.5" filterUnits="userSpaceOnUse" color-interpolation-filters="sRGB">
<feFlood flood-opacity="0" result="BackgroundImageFix"/>
<feColorMatrix in="SourceAlpha" type="matrix" values="0 0 0 0 0 0 0 0 0 0 0 0 0 0 0 0 0 0 127 0" result="hardAlpha"/>
<feOffset dy="4"/>
<feGaussianBlur stdDeviation="2"/>
<feComposite in2="hardAlpha" operator="out"/>
<feColorMatrix type="matrix" values="0 0 0 0 0 0 0 0 0 0 0 0 0 0 0 0 0 0 0.25 0"/>
<feBlend mode="normal" in2="BackgroundImageFix" result="effect1_dropShadow_13_288"/>
<feBlend mode="normal" in="SourceGraphic" in2="effect1_dropShadow_13_288" result="shape"/>
</filter>
<clipPath id="clip0_13_288">
<rect x="4" y="0.25" width="68.0839" height="65.5" rx="9" fill="white"/>
</clipPath>
</defs>
</svg>
